<svg width="18" height="17" viewBox="0 0 18 17" fill="none" xmlns="http://www.w3.org/2000/svg">
<path d="M13.1988 10.9634H12.3648L12.0691 10.6944C12.7289 9.97084 13.2112 9.1186 13.4813 8.19863C13.7514 7.27866 13.8028 6.3137 13.6317 5.37281C13.1355 2.60242 10.6861 0.390087 7.72986 0.0512619C6.69056 -0.072842 5.63496 0.0291104 4.64383 0.349318C3.6527 0.669525 2.75231 1.1995 2.01155 1.89869C1.2708 2.59788 0.709324 3.44775 0.370083 4.38327C0.0308408 5.31879 -0.0771721 6.31516 0.0543092 7.29614C0.413276 10.0865 2.75712 12.3985 5.6922 12.8668C6.68902 13.0283 7.71134 12.9798 8.68599 12.7249C9.66065 12.4699 10.5635 12.0147 11.3301 11.3919L11.6151 11.671V12.4582L16.1022 16.6936C16.5351 17.1021 17.2425 17.1021 17.6753 16.6936C18.1082 16.285 18.1082 15.6173 17.6753 15.2087L13.1988 10.9634ZM6.86412 10.9634C4.23521 10.9634 2.11309 8.96037 2.11309 6.47898C2.11309 3.99758 4.23521 1.99452 6.86412 1.99452C9.49302 1.99452 11.6151 3.99758 11.6151 6.47898C11.6151 8.96037 9.49302 10.9634 6.86412 10.9634Z" fill="black"/>
</svg>
